<mxfile host="app.diagrams.net" agent="Mozilla/5.0 (Windows NT 10.0; Win64; x64) AppleWebKit/537.36 (KHTML, like Gecko) Chrome/128.0.0.0 Safari/537.36 OPR/114.0.0.0" version="24.8.3">
  <diagram id="C5RBs43oDa-KdzZeNtuy" name="Page-1">
    <mxGraphModel dx="2018" dy="1014" grid="1" gridSize="10" guides="1" tooltips="1" connect="1" arrows="1" fold="1" page="1" pageScale="1" pageWidth="827" pageHeight="1169" math="0" shadow="0">
      <root>
        <mxCell id="WIyWlLk6GJQsqaUBKTNV-0" />
        <mxCell id="WIyWlLk6GJQsqaUBKTNV-1" parent="WIyWlLk6GJQsqaUBKTNV-0" />
        <mxCell id="BeSRXxgiDRbs0zAlpruN-13" style="edgeStyle=orthogonalEdgeStyle;rounded=0;orthogonalLoop=1;jettySize=auto;html=1;entryX=0;entryY=0.5;entryDx=0;entryDy=0;" parent="WIyWlLk6GJQsqaUBKTNV-1" source="BeSRXxgiDRbs0zAlpruN-10" target="BeSRXxgiDRbs0zAlpruN-12" edge="1">
          <mxGeometry relative="1" as="geometry" />
        </mxCell>
        <mxCell id="BeSRXxgiDRbs0zAlpruN-17" style="edgeStyle=orthogonalEdgeStyle;rounded=0;orthogonalLoop=1;jettySize=auto;html=1;" parent="WIyWlLk6GJQsqaUBKTNV-1" source="BeSRXxgiDRbs0zAlpruN-10" target="BeSRXxgiDRbs0zAlpruN-16" edge="1">
          <mxGeometry relative="1" as="geometry" />
        </mxCell>
        <mxCell id="BeSRXxgiDRbs0zAlpruN-10" value="Not enough items&amp;nbsp;" style="rounded=1;whiteSpace=wrap;html=1;fontSize=12;glass=0;strokeWidth=1;shadow=0;fontStyle=1;strokeColor=#d6b656;align=center;verticalAlign=middle;fontFamily=Helvetica;fontColor=default;fillColor=#fff2cc;gradientColor=#FFFFFF;" parent="WIyWlLk6GJQsqaUBKTNV-1" vertex="1">
          <mxGeometry x="320" y="120" width="180" height="80" as="geometry" />
        </mxCell>
        <mxCell id="BeSRXxgiDRbs0zAlpruN-15" style="edgeStyle=orthogonalEdgeStyle;rounded=0;orthogonalLoop=1;jettySize=auto;html=1;" parent="WIyWlLk6GJQsqaUBKTNV-1" source="BeSRXxgiDRbs0zAlpruN-12" target="BeSRXxgiDRbs0zAlpruN-14" edge="1">
          <mxGeometry relative="1" as="geometry" />
        </mxCell>
        <mxCell id="BeSRXxgiDRbs0zAlpruN-12" value="Offer another item || Ask customer to wait" style="rounded=1;whiteSpace=wrap;html=1;fontSize=12;glass=0;strokeWidth=1;shadow=0;fontStyle=1;strokeColor=#d6b656;align=center;verticalAlign=middle;fontFamily=Helvetica;fontColor=default;fillColor=#fff2cc;gradientColor=#FFFFFF;" parent="WIyWlLk6GJQsqaUBKTNV-1" vertex="1">
          <mxGeometry x="580" y="120" width="180" height="80" as="geometry" />
        </mxCell>
        <mxCell id="BeSRXxgiDRbs0zAlpruN-14" value="Update in pending on Discord" style="rounded=1;whiteSpace=wrap;html=1;fontSize=12;glass=0;strokeWidth=1;shadow=0;fontStyle=1;strokeColor=#d6b656;align=center;verticalAlign=middle;fontFamily=Helvetica;fontColor=default;fillColor=#fff2cc;gradientColor=#FFFFFF;" parent="WIyWlLk6GJQsqaUBKTNV-1" vertex="1">
          <mxGeometry x="840" y="120" width="180" height="80" as="geometry" />
        </mxCell>
        <mxCell id="BeSRXxgiDRbs0zAlpruN-16" value="Offer a full refund" style="rounded=1;whiteSpace=wrap;html=1;fontSize=12;glass=0;strokeWidth=1;shadow=0;fontStyle=1;strokeColor=#d6b656;align=center;verticalAlign=middle;fontFamily=Helvetica;fontColor=default;fillColor=#fff2cc;gradientColor=#FFFFFF;" parent="WIyWlLk6GJQsqaUBKTNV-1" vertex="1">
          <mxGeometry x="320" y="280" width="180" height="80" as="geometry" />
        </mxCell>
        <mxCell id="BeSRXxgiDRbs0zAlpruN-21" style="edgeStyle=orthogonalEdgeStyle;rounded=0;orthogonalLoop=1;jettySize=auto;html=1;" parent="WIyWlLk6GJQsqaUBKTNV-1" source="BeSRXxgiDRbs0zAlpruN-20" target="BeSRXxgiDRbs0zAlpruN-10" edge="1">
          <mxGeometry relative="1" as="geometry">
            <mxPoint x="270" y="160" as="sourcePoint" />
          </mxGeometry>
        </mxCell>
        <mxCell id="BeSRXxgiDRbs0zAlpruN-20" value="2" style="ellipse;whiteSpace=wrap;html=1;aspect=fixed;fontStyle=1;rounded=1;shadow=0;glass=0;strokeColor=#d6b656;strokeWidth=1;align=center;verticalAlign=middle;fontFamily=Helvetica;fontSize=12;fontColor=default;fillColor=#E6DAB8;gradientColor=none;" parent="WIyWlLk6GJQsqaUBKTNV-1" vertex="1">
          <mxGeometry x="80" y="120" width="80" height="80" as="geometry" />
        </mxCell>
      </root>
    </mxGraphModel>
  </diagram>
</mxfile>
